<?xml version="1.0" standalone="no"?><!DOCTYPE svg PUBLIC "-//W3C//DTD SVG 1.1//EN" "http://www.w3.org/Graphics/SVG/1.1/DTD/svg11.dtd"><svg t="1560411758482" class="icon" style="" viewBox="0 0 1024 1024" version="1.1" xmlns="http://www.w3.org/2000/svg" p-id="2586" xmlns:xlink="http://www.w3.org/1999/xlink" width="500" height="500"><defs><style type="text/css"></style></defs><path d="M612.5 21.5c-2.5-0.8-5.1-0.8-7.6-0.8-22.7-0.8-42.1 14.3-46.3 36.2-2.5 11.8 0 24.4 6.7 34.5s16.8 16.8 28.6 19.4c96 20.2 178.4 75.8 232.3 158.2 53.9 82.5 73.2 180.1 53 276.1-2.5 11.8 0 24.4 6.7 34.5 6.7 10.1 16.8 16.8 28.6 19.4 2.5 0.8 5.1 0.8 7.6 0.8 9.3 0 18.5-2.5 26.9-7.6 10.1-6.7 16.8-16.8 19.4-28.6C1019.9 316.1 860 72.9 612.5 21.5z m78.3 685.2c2.5 1.7 63.1 40.4 109.4 87.5 17.7 17.7 46.3 48 45.5 82.5-0.8 23.6-14.3 48-41.2 73.2-6.7 6.7-66.5 63.1-163.3 63.1-26.1 0-53.9-4.2-80.8-12.6-28.6-8.4-57.2-21.9-85.9-39.6C361.7 894.3 275 808.4 192.5 683 51.1 467.6 47.7 283.3 47.7 247.9 48.6 87.2 182.4 24 197.6 17.3 218.6 8.1 237.1 3 253.9 3c8.4 0 16 0.8 22.7 3.4 15.2 4.2 35.4 16 48.8 46.3 18.5 40.4 36.2 98.5 48.8 159.1 12.6 63.1-22.7 80.8-56.4 97.6l-1.7 0.8s-60.6 25.3-70.7 29.5c-10.1 4.2-16 16-12.6 26.9 24.4 74.1 61.4 150.7 107.7 221.4 45.5 69.9 99.3 134.7 155.7 186.9 4.2 3.4 9.3 5.9 15.2 5.9h1.7c5.9-0.8 11.8-3.4 15.2-8.4 9.3-11.8 23.6-28.6 37.9-42.9 28.6-26.9 53.9-39.6 78.3-39.6 6.7 0 13.5 0.8 19.4 2.5 5.9 1.7 16 6.7 26.9 14.3zM499.7 395.2c-11.8-2.5-21.9-9.3-28.6-19.4-6.7-10.1-9.3-22.7-6.7-34.5 4.2-21.9 24.4-37 46.3-36.2 2.5 0 5.1 0 7.6 0.8 105.2 21.9 173.4 126.3 152.4 231.5-2.5 11.8-9.3 21.9-19.4 28.6-8.4 5.1-17.7 7.6-26.9 7.6-2.5 0-5.1 0-7.6-0.8-11.8-2.5-21.9-9.3-28.6-19.4-6.7-10.1-9.3-21.9-6.7-34.5 5.9-27.8 0-55.6-15.2-79.1-16.1-22.7-39.6-38.7-66.6-44.6zM546.9 253c-24.4-5.1-40.4-29.5-35.4-53.9 4.2-21.9 24.4-37 46.3-36.2 2.5 0 5.1 0 7.6 0.8 85.9 17.7 159.1 67.3 207.9 140.6 48 73.2 64.8 160.8 47.1 246.6-2.5 11.8-9.3 21.9-19.4 28.6-8.4 5.1-16.8 7.6-26.9 7.6-2.5 0-5.1 0-7.6-0.8-24.4-5.1-40.4-29.5-35.4-53.9 12.6-61.4 0.8-124.6-34.5-177.6-34.4-53-88.3-89.2-149.7-101.8z" fill="#ffffff" p-id="2587"></path></svg>